# xmcd
# Track frame offsets:
# 150
# 15205
# 29968
# 48348
# 68168
# 83433
# 99916
# 114912
# 131031
# 147796
# 161419
# 179129
# 194300
# 211455
# 226919
# 242205
# 258620
# 274421
# 289323
# 304950
# 319556
# 335269
#
# Disc length: 4689 seconds
# Revision: 0
# Processed by: cddbd v1.5.2PL0 Copyright (c) Steve Scherf et al.
# Submitted via: VisiTrax 2.11.1.266 - For more info visit www.synapsa.com
#
DISCID=40124f16
DTITLE=Bellamy Brothers - Best Of The Best
DYEAR=1992
DGENRE=
TTITLE0=Let your love flow
TTITLE1=If I said you had a beutiful body
TTITLE2=Old hippie
TTITLE3=You ain't just whistlin'  dixie
TTITLE4=Dancin'  cowboys
TTITLE5=Sugar daddy
TTITLE6=Lovers live longer
TTITLE7=Crazy from the heart
TTITLE8=Feelin'  the feelin'
TTITLE9=Do you love as good as you look
TTITLE10=For all the wrong reasons
TTITLE11=Redneck girl
TTITLE12=When I'm away from you
TTITLE13=I'd lie for you for your love
TTITLE14=You'll never be sorry
TTITLE15=Santa Fe
TTITLE16=I need more of you
TTITLE17=Big love
TTITLE18=KIds of the baby boom
TTITLE19=Get into reggae cowboy
TTITLE20=Cowboy beat
TTITLE21=Vertical expressions (of the horizontal desire)
EXTD=
EXTT0=
EXTT1=
EXTT2=
EXTT3=
EXTT4=
EXTT5=
EXTT6=
EXTT7=
EXTT8=
EXTT9=
EXTT10=
EXTT11=
EXTT12=
EXTT13=
EXTT14=
EXTT15=
EXTT16=
EXTT17=
EXTT18=
EXTT19=
EXTT20=
EXTT21=
PLAYORDER=
